<?xml version="1.0" encoding="utf-8"?>
<svg width="270px" height="270px" viewBox="0 0 270 270" version="1.1" xmlns:xlink="http://www.w3.org/1999/xlink" xmlns="http://www.w3.org/2000/svg">
  <desc>Created with Lunacy</desc>
  <defs>
    <linearGradient x1="0.5" y1="0" x2="0.5" y2="1" id="gradient_1">
      <stop offset="0" stop-color="#FFE259" />
      <stop offset="1" stop-color="#FFA751" />
    </linearGradient>
    <filter filterUnits="userSpaceOnUse" color-interpolation-filters="sRGB" id="filter_1">
      <feFlood flood-opacity="0" result="BackgroundImageFix" />
      <feColorMatrix in="SourceAlpha" type="matrix" values="0 0 0 0 0 0 0 0 0 0 0 0 0 0 0 0 0 0 127 0" />
      <feOffset dx="0" dy="8" />
      <feGaussianBlur stdDeviation="4" />
      <feColorMatrix type="matrix" values="0 0 0 0 0 0 0 0 0 0 0 0 0 0 0 0 0 0 0.2 0" />
      <feBlend mode="normal" in2="BackgroundImageFix" result="effect0_dropShadow" />
      <feBlend mode="normal" in="SourceGraphic" in2="effect0_dropShadow" result="shape" />
    </filter>
    <path d="M0 0L270 0L270 270L0 270L0 0Z" id="path_1" />
    <path d="M0 0L74 0L74 74L0 74L0 0Z" id="path_2" />
    <path d="M0 0L80 0L80 80L0 80L0 0Z" id="path_3" />
    <clipPath id="mask_1">
      <use xlink:href="#path_1" />
    </clipPath>
    <clipPath id="mask_2">
      <use xlink:href="#path_2" />
    </clipPath>
    <clipPath id="mask_3">
      <use xlink:href="#path_3" />
    </clipPath>
  </defs>
  <g id="Code-File-icon">
    <path d="M0 0L270 0L270 270L0 270L0 0Z" id="Background" fill="none" fill-rule="evenodd" stroke="none" />
    <g clip-path="url(#mask_1)">
      <path d="M5.4 0C2.4165 0 0 2.4165 0 5.4C0 8.3835 2.4165 10.8 5.4 10.8C8.3835 10.8 10.8 8.3835 10.8 5.4C10.8 2.4165 8.3835 0 5.4 0L5.4 0Z" transform="translate(29.362488 72.78662)" id="Shape" fill="#EE3E54" fill-rule="evenodd" stroke="none" />
      <path d="M2.7 0C1.21229 0 0 1.2123 0 2.7C0 4.1877 1.21229 5.4 2.7 5.4C4.1877 5.4 5.39999 4.1877 5.39999 2.7C5.39999 1.2123 4.1877 0 2.7 0L2.7 0Z" transform="translate(204.86249 32.28662)" id="Shape" fill="#F1BC19" fill-rule="evenodd" stroke="none" />
      <path d="M99.9 0C44.7282 0 0 44.7282 0 99.9C0 155.072 44.7282 199.8 99.9 199.8C155.072 199.8 199.8 155.072 199.8 99.9C199.8 44.7282 155.072 0 99.9 0L99.9 0Z" transform="translate(34.762512 34.986633)" id="Shape" fill="#FCE0A2" fill-rule="evenodd" stroke="none" />
      <path d="M10.8 0C4.83031 0 0 4.8303 0 10.8C0 16.7697 4.83031 21.6 10.8 21.6C16.7697 21.6 21.6 16.7697 21.6 10.8C21.6 4.8303 16.7697 0 10.8 0L10.8 0Z" transform="translate(212.96252 29.586609)" id="Shape" fill="#F1BC19" fill-rule="evenodd" stroke="none" />
      <path d="M5.4 0C2.41649 0 0 2.4165 0 5.4C0 8.3835 2.41649 10.8 5.4 10.8C8.38351 10.8 10.8 8.3835 10.8 5.4C10.8 2.4165 8.38351 0 5.4 0L5.4 0Z" transform="translate(229.16248 59.28662)" id="Shape" fill="#EE3E54" fill-rule="evenodd" stroke="none" />
      <path d="M0 10.8C0 4.8303 4.8303 0 10.8 0C16.7697 0 21.6 4.8303 21.6 10.8C21.6 16.7697 16.7697 21.6 10.8 21.6C4.8303 21.6 0 16.7697 0 10.8ZM183.6 45.9C183.6 42.9165 186.017 40.5 189 40.5C191.984 40.5 194.4 42.9165 194.4 45.9C194.4 48.8835 191.984 51.3 189 51.3C186.017 51.3 183.6 48.8835 183.6 45.9Z" transform="translate(29.362488 159.18665)" id="Shape" fill="#FBCD59" fill-rule="evenodd" stroke="none" />
      <path d="M5.4 0C2.4165 0 0 2.41649 0 5.4C0 8.38351 2.4165 10.8 5.4 10.8C8.3835 10.8 10.8 8.38351 10.8 5.4C10.8 2.41649 8.3835 0 5.4 0L5.4 0Z" transform="translate(61.762512 229.3866)" id="Shape" fill="#EE3E54" fill-rule="evenodd" stroke="none" />
      <path d="M6.75 0C3.0267 0 0 3.0267 0 6.75C0 10.4733 3.0267 13.5 6.75 13.5C10.4733 13.5 13.5 10.4733 13.5 6.75C13.5 3.0267 10.4733 0 6.75 0L6.75 0Z" transform="translate(48.262512 99.78662)" id="Shape" fill="#FFFFFF" fill-rule="evenodd" stroke="none" />
      <path d="M2.7 0C1.2123 0 0 1.21229 0 2.7C0 4.1877 1.2123 5.39999 2.7 5.39999C4.1877 5.39999 5.4 4.1877 5.4 2.7C5.4 1.21229 4.1877 0 2.7 0L2.7 0Z" transform="translate(53.662506 175.38663)" id="Shape" fill="#F1BC19" fill-rule="evenodd" stroke="none" />
      <path d="M2.7 0C1.21229 0 0 1.2123 0 2.7C0 4.1877 1.21229 5.4 2.7 5.4C4.1877 5.4 5.39999 4.1877 5.39999 2.7C5.39999 1.2123 4.1877 0 2.7 0L2.7 0Z" transform="translate(212.96252 86.28662)" id="Shape" fill="#FFFFFF" fill-rule="evenodd" stroke="none" />
      <g id="Group" transform="translate(79 64.79999)">
        <path d="M14.3451 136.62C6.4341 136.62 0 130.507 0 122.99L0 13.6296C0 6.1155 6.4341 0 14.3451 0L73.1106 0L109.62 34.9029L109.62 122.99C109.62 130.504 103.186 136.62 95.2749 136.62L14.3451 136.62L14.3451 136.62Z" transform="translate(1.8900146 1.8900146)" id="Shape" fill="#EDF7F5" fill-rule="evenodd" stroke="none" />
        <path d="M40.8996 0L75.7593 0C90.3987 13.9941 98.7606 21.9915 113.4 35.9856L113.4 124.88C113.4 133.418 106.096 140.4 97.1676 140.4L16.2351 140.4C7.3035 140.4 0 133.415 0 124.88L0 15.5196C0 6.9822 7.3035 0 16.2351 0L40.8996 0ZM91.9675 20.7253L74.242 3.78006L16.2352 3.78006C9.36636 3.78006 3.78006 9.04776 3.78006 15.5197L3.78006 124.88C3.78006 131.352 9.36906 136.62 16.2352 136.62L97.165 136.62C104.034 136.62 109.62 131.352 109.62 124.88L109.62 37.6003L91.9675 20.7253Z" id="Shape" fill="#472B29" fill-rule="evenodd" stroke="none" />
        <path d="M0 0L0 21.5838C0 29.4516 6.4692 35.8884 14.3775 35.8884L36.45 35.8884" transform="translate(74.25 3.2616267)" id="Shape" fill="#85CFCC" fill-rule="evenodd" stroke="none" />
        <path d="M37.8 37.2384L15.7275 37.2384C7.05509 37.2384 0 30.2157 0 21.5838L0 0L2.7 0L2.7 21.5838C2.7 28.728 8.5455 34.5384 15.7275 34.5384L37.8 34.5384L37.8 37.2384L37.8 37.2384Z" transform="translate(72.89996 3.2616272)" id="Shape" fill="#472B29" fill-rule="evenodd" stroke="none" />
        <path d="M37.8 2.7L0.675 2.7C0.302399 2.7 0 2.0952 0 1.35C0 0.604798 0.302399 0 0.675 0L37.8 0C38.1726 0 38.475 0.604798 38.475 1.35C38.475 2.0952 38.1726 2.7 37.8 2.7L37.8 2.7Z" transform="translate(31.049988 11.475006)" id="Shape" fill="#472B29" fill-rule="evenodd" stroke="none" />
        <path d="M82.1961 117.45L8.2539 117.45C3.7017 117.45 0 113.773 0 109.255L0 8.1945C0 3.6747 3.7017 0 8.2539 0L14.175 0C14.5476 0 14.85 0.302399 14.85 0.675C14.85 1.0476 14.5476 1.35 14.175 1.35L8.2539 1.35C4.4469 1.35 1.35 4.4199 1.35 8.1945L1.35 109.255C1.35 113.03 4.4442 116.1 8.2539 116.1L82.1988 116.1C86.0058 116.1 89.1027 113.03 89.1027 109.255L89.1027 78.975C89.1027 78.6024 89.4051 78.3 89.7777 78.3C90.1503 78.3 90.4527 78.6024 90.4527 78.975L90.4527 109.255C90.45 113.773 86.7483 117.45 82.1961 117.45L82.1961 117.45Z" transform="translate(11.475006 11.475006)" id="Shape" fill="#472B29" fill-rule="evenodd" stroke="none" />
        <g id="Group" transform="translate(100.57501 68.17502)">
          <path d="M1.35 14.85C0.604797 14.85 0 14.5476 0 14.175L0 0.675C0 0.302399 0.604797 0 1.35 0C2.0952 0 2.7 0.302399 2.7 0.675L2.7 14.175C2.7 14.5476 2.0952 14.85 1.35 14.85L1.35 14.85Z" id="Shape" fill="#472B29" fill-rule="evenodd" stroke="none" />
        </g>
        <g id="Group" transform="translate(100.57501 58.27414)">
          <path d="M1.35 7.425C0.604797 7.425 0 7.1226 0 6.75L0 0.675C0 0.302399 0.604797 0 1.35 0C2.0952 0 2.7 0.302399 2.7 0.675L2.7 6.75C2.7 7.1226 2.0952 7.425 1.35 7.425L1.35 7.425Z" id="Shape" fill="#472B29" fill-rule="evenodd" stroke="none" />
        </g>
      </g>
    </g>
  </g>
  <g id="Helping-Hand-icon" transform="translate(98 100)">
    <path d="M0 0L74 0L74 74L0 74L0 0Z" id="Background" fill="none" fill-rule="evenodd" stroke="none" />
    <g clip-path="url(#mask_2)">
      <path d="M44.7083 4.62346L21.5833 0L12.3333 9.24846L0 10.7901L0.00154155 35.4583L44.7083 35.4583L44.7083 4.62346Z" transform="translate(9.25 26.2099)" id="Shape" fill="url(#gradient_1)" fill-rule="evenodd" stroke="none" filter="url(#filter_1)" />
      <path d="M6.9375 7.70833C4.80846 7.70833 3.08333 5.98321 3.08333 3.85417C3.08333 1.72512 4.80846 0 6.9375 0L14.6458 0C16.7749 0 18.5 1.72512 18.5 3.85417C18.5 5.98321 16.7749 7.70833 14.6458 7.70833L16.1875 7.70833C18.3165 7.70833 20.0417 9.43346 20.0417 11.5625C20.0417 13.6915 18.3165 15.4167 16.1875 15.4167L14.6458 15.4167C16.7749 15.4167 18.5 17.1418 18.5 19.2708C18.5 21.3999 16.7749 23.125 14.6458 23.125L11.5625 23.125C13.6915 23.125 15.4167 24.8501 15.4167 26.9792C15.4167 29.1082 13.6915 30.8333 11.5625 30.8333L3.85417 30.8333C1.72512 30.8333 0 29.1082 0 26.9792C0 24.8501 1.72512 23.125 3.85417 23.125L6.9375 23.125C4.80846 23.125 3.08333 21.3999 3.08333 19.2708C3.08333 17.1418 4.80846 15.4167 6.9375 15.4167L8.47917 15.4167C6.35012 15.4167 4.625 13.6915 4.625 11.5625C4.625 9.43346 6.35012 7.70833 8.47917 7.70833L6.9375 7.70833Z" transform="translate(44.708313 30.833344)" id="Shape" fill="#FFCC80" fill-rule="evenodd" stroke="none" />
      <g id="Group" transform="translate(50.875 38.541656)">
        <path d="M9.25 0L3.08333 0C2.23234 0 1.54167 0.689126 1.54167 1.54167C1.54167 2.39421 2.23234 3.08333 3.08333 3.08333L9.25 0ZM9.25 7.70833L3.08333 7.70833C2.23234 7.70833 1.54167 8.39746 1.54167 9.25C1.54167 10.1025 2.23234 10.7917 3.08333 10.7917L9.25 7.70833ZM1.54167 15.4167L6.16667 15.4167L1.54167 18.5C0.69067 18.5 0 17.8109 0 16.9583C0 16.1058 0.69067 15.4167 1.54167 15.4167Z" id="Shape" fill="#F2A25A" fill-rule="evenodd" stroke="none" />
      </g>
      <g id="Group" transform="translate(23.125 6.168213)">
        <path d="M6.16666 20.0401L15.4167 24.6651L37 24.6651L37.4008 23.7617L41.625 13.8735L23.125 0L20.0417 6.16667C16.9583 10.7917 13.875 10.7917 13.875 10.7917C11.1755 11.2619 9.56603 13.1674 8.30649 15.9223L6.16666 20.0401ZM3.85417 60.1235C5.98475 60.1235 7.70833 58.4693 7.70833 56.4265L7.70833 54.5765C7.70833 52.5308 5.98475 50.8781 3.85417 50.875C1.72821 50.875 0.00154082 52.5308 0 54.575L0.00154229 56.4265C0.00154229 58.4692 1.72512 60.1235 3.85417 60.1235ZM15.4167 56.4265C15.4167 58.4693 13.6931 60.1235 11.5625 60.1235C9.43347 60.1235 7.70988 58.4692 7.70988 56.4265L7.70834 54.575C7.70988 52.5308 9.43655 50.875 11.5625 50.875C13.6907 50.8781 15.4128 52.5271 15.4167 54.5697C15.4212 52.5279 17.1467 50.875 19.2708 50.875C21.4014 50.8781 23.125 52.5308 23.125 54.5765L23.125 56.4265C23.125 58.4693 21.4014 60.1235 19.2708 60.1235C17.1418 60.1235 15.4182 58.4692 15.4182 56.4265L15.4167 54.5979L15.4167 56.4265ZM26.9792 60.1235C29.1097 60.1235 30.8333 58.4693 30.8333 56.4265L30.8333 54.5765C30.8333 52.5308 29.1097 50.8781 26.9792 50.875C24.8532 50.875 23.1265 52.5308 23.125 54.575L23.1265 56.4265C23.1265 58.4692 24.8501 60.1235 26.9792 60.1235Z" id="Shape" fill="#FFA000" fill-rule="evenodd" stroke="none" />
        <path d="M5.5348 0L17.8681 1.54167L13.681 10.6005C12.3135 13.6422 10.0025 16.0441 7.32313 18.056L6.00654 19.0442C4.77938 19.9646 2.04292 20.2606 0.777211 18.5725L0.296211 17.9327C-0.116955 17.3838 -0.0969143 16.6145 0.350169 16.0719L2.63492 13.2861C3.67863 12.008 4.3955 10.4972 4.71463 8.88925L5.5348 0L5.5348 0Z" transform="translate(0.63186646 20.0401)" id="Shape" fill="#FFA000" fill-rule="evenodd" stroke="none" />
      </g>
      <g id="Group" transform="translate(24.668182 58.583252)">
        <path d="M3.23455e-05 2.15845C0.0139085 0.954414 1.05762 -0.0122148 2.33874 0.00011762C3.6137 0.0155317 4.64045 1.0022 4.62349 2.2047C4.60962 3.40874 -0.0138424 3.36095 3.23455e-05 2.15845ZM10.0471 0.00011762C8.76595 -0.0122148 7.72224 0.954414 7.70837 2.15845C7.69449 3.36095 12.3179 3.40874 12.3318 2.2047C12.3488 1.0022 11.322 0.0155317 10.0471 0.00011762ZM17.7554 0.00011762C16.4743 -0.0122148 15.4306 0.954414 15.4167 2.15845C15.4028 3.36095 20.0263 3.40874 20.0402 2.2047C20.0571 1.0022 19.0304 0.0155317 17.7554 0.00011762ZM23.125 2.15845C23.1389 0.954414 24.1826 -0.0122148 25.4637 0.00011762C26.7387 0.0155317 27.7654 1.0022 27.7485 2.2047C27.7346 3.40874 23.1112 3.36095 23.125 2.15845Z" id="Shape" fill="#FFCDD2" fill-rule="evenodd" stroke="none" />
      </g>
    </g>
  </g>
  <g id="Code-icon" transform="translate(98 86)">
    <path d="M0 0L80 0L80 80L0 80L0 0Z" id="Background" fill="none" fill-rule="evenodd" stroke="none" />
    <g clip-path="url(#mask_3)">
      <path d="M19.9896 22.5C19.9896 10.073 30.3114 0 42.9896 0C55.6678 0 65.9896 10.073 65.9896 22.5C65.9896 34.927 55.6678 45 42.9896 45C37.9722 45 33.3279 43.417 29.5423 40.7402L24.9642 45.248C25.3019 46.2821 25.2706 47.4074 24.4486 48.2168L8.2767 64.1348C7.11072 65.2828 5.2122 65.2828 4.04623 64.1348L0.874353 61.0137C-0.291451 59.8658 -0.291451 57.9526 0.874353 56.8047L17.0443 40.8848C17.8728 40.069 19.0093 40.0431 20.0521 40.3867L24.5579 35.9512C21.6902 32.1992 19.9896 27.5435 19.9896 22.5ZM42.9896 2C54.6114 2 63.9896 11.179 63.9896 22.5C63.9896 33.821 54.6114 43 42.9896 43C31.3678 43 21.9896 33.821 21.9896 22.5C21.9896 11.179 31.3678 2 42.9896 2ZM41.9896 4.9375C41.9896 4.3945 42.4376 3.95313 42.9896 3.95313C43.5416 3.95313 43.9896 4.3945 43.9896 4.9375C43.9896 5.4805 43.5416 5.92188 42.9896 5.92188C42.4376 5.92188 41.9896 5.4815 41.9896 4.9375ZM38.4681 4.5664C38.3394 4.54878 38.2049 4.55654 38.0716 4.59179C37.5386 4.73279 37.2216 5.27087 37.3646 5.79687C37.5076 6.32187 38.0552 6.63318 38.5892 6.49218C39.1222 6.35118 39.4392 5.81311 39.2962 5.28711C39.189 4.89336 38.8541 4.61928 38.4681 4.5664ZM46.683 5.28711C46.7902 4.89336 47.125 4.62123 47.5111 4.56836C47.6398 4.55073 47.7741 4.55655 47.9076 4.5918C48.4406 4.7328 48.7576 5.27383 48.6146 5.79883C48.4716 6.32383 47.923 6.63514 47.39 6.49414C46.857 6.35314 46.54 5.81211 46.683 5.28711ZM33.8646 6.33399C33.7356 6.34979 33.6074 6.39099 33.4876 6.45899C33.0096 6.73099 32.8464 7.3337 33.1224 7.8047C33.3984 8.27569 34.0096 8.43607 34.4876 8.16407C34.9656 7.89207 35.1308 7.28937 34.8548 6.81837C34.6478 6.46512 34.2515 6.2866 33.8646 6.33399ZM51.1244 6.82032C51.3314 6.46707 51.7259 6.28856 52.1126 6.33595C52.2415 6.35174 52.3701 6.39295 52.4896 6.46095C52.9676 6.73295 53.1308 7.33565 52.8548 7.80665C52.5788 8.27765 51.9676 8.43803 51.4896 8.16602C51.0116 7.89402 50.8484 7.29132 51.1244 6.82032ZM30.2611 9.14258C30.0052 9.14258 29.7496 9.23964 29.5541 9.43164C29.1631 9.81564 29.1631 10.4383 29.5541 10.8223C29.9451 11.2063 30.5781 11.2063 30.9681 10.8223C31.3591 10.4383 31.3591 9.81564 30.9681 9.43164C30.7731 9.23964 30.517 9.14258 30.2611 9.14258ZM55.0091 9.43164C55.2046 9.23964 55.4603 9.14258 55.7161 9.14258C55.972 9.14258 56.2282 9.23964 56.4232 9.43164C56.8142 9.81564 56.8142 10.4383 56.4232 10.8223C56.0332 11.2063 55.4001 11.2063 55.0091 10.8223C54.6181 10.4383 54.6181 9.81564 55.0091 9.43164ZM27.5247 12.8203C27.138 12.7729 26.7435 12.9514 26.5365 13.3047C26.2605 13.7757 26.4237 14.3784 26.9017 14.6504C27.3797 14.9224 27.9909 14.7601 28.2669 14.2891C28.5429 13.8181 28.3797 13.2173 27.9017 12.9453C27.7822 12.8773 27.6537 12.8361 27.5247 12.8203ZM58.0755 12.9434C58.1953 12.8756 58.3235 12.836 58.4525 12.8203C58.8393 12.7733 59.2338 12.9522 59.4408 13.3047C59.7168 13.7757 59.5535 14.3764 59.0755 14.6485C58.5975 14.9205 57.9863 14.7601 57.7103 14.2891C57.4343 13.8181 57.5975 13.2154 58.0755 12.9434ZM47.9896 14L46.0638 14L37.9896 32L39.9173 32L47.9896 14ZM30.222 22.3594C31.8889 20.3595 33.5549 18.3595 35.222 16.3594L36.7572 17.6406C35.2682 19.4271 33.7794 21.2133 32.2904 23C33.7794 24.7867 35.2682 26.5729 36.7572 28.3594L35.222 29.6406C33.5549 27.6405 31.8889 25.6405 30.222 23.6406L29.6869 23L30.222 22.3594ZM50.7572 16.3594L49.222 17.6406C50.711 19.4271 52.1998 21.2133 53.6888 23C52.1998 24.7867 50.711 26.5729 49.222 28.3594L50.7572 29.6406C52.4243 27.6405 54.0903 25.6405 55.7572 23.6406L56.2923 23L55.7572 22.3594C54.0903 20.3595 52.4243 18.3595 50.7572 16.3594ZM24.6361 17.8164C24.7433 17.4227 25.0802 17.1486 25.4661 17.0957C25.5948 17.0781 25.7274 17.0858 25.8607 17.1211C26.3937 17.2621 26.7107 17.8012 26.5677 18.3262C26.4247 18.8512 25.8761 19.1644 25.3431 19.0234C24.8101 18.8824 24.4931 18.3414 24.6361 17.8164ZM60.513 17.0957C60.3844 17.0781 60.2518 17.0858 60.1185 17.1211C59.5855 17.2621 59.2685 17.8002 59.4115 18.3262C59.5545 18.8512 60.1021 19.1644 60.6361 19.0234C61.1691 18.8824 61.4861 18.3424 61.3431 17.8164C61.2359 17.4227 60.899 17.1486 60.513 17.0957ZM23.9896 22.6563C23.9896 22.1133 24.4376 21.6719 24.9896 21.6719C25.5416 21.6719 25.9896 22.1133 25.9896 22.6563C25.9896 23.1992 25.5416 23.6406 24.9896 23.6406C24.4376 23.6406 23.9896 23.2003 23.9896 22.6563ZM60.9896 21.6719C60.4376 21.6719 59.9896 22.1133 59.9896 22.6563C59.9896 23.2003 60.4376 23.6406 60.9896 23.6406C61.5416 23.6406 61.9896 23.1992 61.9896 22.6563C61.9896 22.1133 61.5416 21.6719 60.9896 21.6719ZM25.3431 26.293C25.4763 26.2577 25.611 26.25 25.7396 26.2676C26.1253 26.3202 26.4597 26.5938 26.5677 26.9883C26.7107 27.5143 26.3937 28.0543 25.8607 28.1953C25.3267 28.3363 24.7791 28.024 24.6361 27.498C24.4931 26.972 24.8101 26.434 25.3431 26.293ZM60.2396 26.2695C59.8535 26.3225 59.5187 26.5945 59.4115 26.9883C59.2685 27.5133 59.5855 28.0543 60.1185 28.1953C60.6515 28.3363 61.2001 28.023 61.3431 27.498C61.4861 26.973 61.1691 26.434 60.6361 26.293C60.5026 26.258 60.3683 26.2518 60.2396 26.2695ZM26.8997 30.6621C27.0192 30.5944 27.1478 30.5528 27.2767 30.5371C27.6634 30.4901 28.0599 30.669 28.2669 31.0215C28.5429 31.4925 28.3778 32.0952 27.8997 32.3672C27.4217 32.6392 26.8105 32.4788 26.5345 32.0078C26.2585 31.5368 26.4217 30.9341 26.8997 30.6621ZM58.7005 30.541C58.3138 30.4936 57.9173 30.6721 57.7103 31.0254C57.4343 31.4964 57.5995 32.0991 58.0775 32.3711C58.5555 32.6431 59.1667 32.4827 59.4427 32.0117C59.7187 31.5407 59.5555 30.938 59.0775 30.666C58.958 30.598 58.8294 30.5568 58.7005 30.541ZM29.5541 34.4902C29.7496 34.2977 30.0052 34.2012 30.2611 34.2012C30.517 34.2012 30.7731 34.2977 30.9681 34.4902C31.3591 34.8742 31.3591 35.4988 30.9681 35.8828C30.5781 36.2668 29.9451 36.2668 29.5541 35.8828C29.1631 35.4988 29.1631 34.8742 29.5541 34.4902ZM55.7161 34.2012C55.4603 34.2012 55.2046 34.2977 55.0091 34.4902C54.6181 34.8742 54.6181 35.4988 55.0091 35.8828C55.4001 36.2668 56.0332 36.2668 56.4232 35.8828C56.8132 35.4988 56.8142 34.8742 56.4232 34.4902C56.2282 34.2977 55.972 34.2012 55.7161 34.2012ZM51.4876 37.1465C51.6071 37.0785 51.7358 37.0372 51.8646 37.0215C52.2511 36.9743 52.6471 37.1553 52.8548 37.5078C53.1308 37.9788 52.9656 38.5796 52.4876 38.8516C52.0096 39.1236 51.3984 38.9632 51.1224 38.4922C50.8464 38.0212 51.0096 37.4185 51.4876 37.1465ZM34.1107 37.0254C33.724 36.978 33.3294 37.1565 33.1224 37.5098C32.8464 37.9808 33.0096 38.5835 33.4876 38.8555C33.9656 39.1275 34.5769 38.9651 34.8529 38.4941C35.1289 38.0231 34.9656 37.4224 34.4876 37.1504C34.3681 37.0824 34.2396 37.0412 34.1107 37.0254ZM27.9486 39.5039C27.2063 38.8749 26.5037 38.2041 25.849 37.4883L21.8372 41.4375L23.9115 43.4785L27.9486 39.5039ZM47.7845 38.7969C47.6558 38.7793 47.5215 38.787 47.388 38.8223C46.855 38.9633 46.538 39.5013 46.681 40.0273C46.824 40.5533 47.3736 40.8656 47.9076 40.7246C48.4416 40.5836 48.7557 40.0436 48.6127 39.5176C48.5054 39.1231 48.1706 38.8495 47.7845 38.7969ZM37.3646 39.5195C37.4718 39.1258 37.8066 38.8517 38.1927 38.7988C38.3214 38.7812 38.4557 38.787 38.5892 38.8223C39.1222 38.9633 39.4392 39.5043 39.2962 40.0293C39.1532 40.5543 38.6046 40.8656 38.0716 40.7246C37.5386 40.5836 37.2216 40.0445 37.3646 39.5195ZM42.9896 39.3906C42.4376 39.3906 41.9896 39.832 41.9896 40.375C41.9896 40.919 42.4376 41.3594 42.9896 41.3594C43.5416 41.3594 43.9896 40.918 43.9896 40.375C43.9896 39.831 43.5416 39.3906 42.9896 39.3906ZM19.8724 42.3105C19.6744 42.1156 19.4187 42.0176 19.1615 42.0176C18.9043 42.0176 18.6466 42.1156 18.4486 42.3105L17.4154 43.3281L19.6908 45.5684L18.2884 46.9941L15.9896 44.7305L14.4154 46.2813L16.6908 48.5215L15.2884 49.9473L12.9896 47.6836L11.4154 49.2344L13.6908 51.4746L12.2884 52.9004L9.98959 50.6367L8.41537 52.1875L10.6908 54.4277L9.28842 55.8535L6.98959 53.5898L5.41537 55.1406L7.69076 57.3809L6.28842 58.8066L3.98959 56.5449L2.2767 58.2305C1.8805 58.6206 1.8805 59.1978 2.2767 59.5879L5.44858 62.7109C5.8446 63.1009 6.47833 63.1009 6.87436 62.7109L23.0462 46.791C23.4401 46.4032 23.4387 45.8234 23.0443 45.4336L19.8724 42.3105Z" transform="translate(7.0104065 8)" id="Shape" fill="none" fill-rule="evenodd" stroke="none" />
    </g>
  </g>
</svg>